<svg version="1.2" xmlns="http://www.w3.org/2000/svg" viewBox="0 0 178 178" width="500" height="500">
	<title>&lt;Group&gt;</title>
	<defs>
		<linearGradient id="g1" x1="93" y1="-5" x2="128.7" y2="39.5" gradientUnits="userSpaceOnUse">
			<stop offset="0" stop-color="#ffffff"/>
			<stop offset="1" stop-color="#fefefe" stop-opacity="0"/>
		</linearGradient>
	</defs>
	<style>
		.s0 { fill: #34b1e4 } 
		.s1 { fill: #d7df23 } 
		.s2 { fill: #f9f98f } 
		.s3 { opacity: .2;fill: #212a3c } 
		.s4 { opacity: .3;fill: url(#g1) } 
		.s5 { opacity: .3;fill: #ffffff } 
	</style>
	<g id="&lt;Group&gt;">
		<g id="&lt;Group&gt;">
			<g id="&lt;Group&gt;">
				<path id="&lt;Path&gt;" class="s0" d="m177.4 88.7c0 48.8-39.6 88.4-88.4 88.4-48.8 0-88.4-39.6-88.4-88.4 0-48.8 39.6-88.4 88.4-88.4 48.8 0 88.4 39.6 88.4 88.4z"/>
			</g>
			<g id="&lt;Group&gt;">
				<path id="&lt;Path&gt;" class="s1" d="m85.6 152.5c-6.1 3-7-0.6-7.6 7.6-0.4 6.2 0.3 11.1 0 16.3-41.2-5.1-73.6-38.6-77.1-80.3 4.2-2.1 7.9-3.4 8.7-3.2 1.8 0.3 17.8 11.4 18.1 12.6 0.3 1.2 3.9 12.1 4.5 15.7 0.6 3.6 16 11.4 18.4 7.5 2.4-3.9 22-9.6 22-9.6 0 0 1.5-1.8 4.8-0.6 3.3 1.2 16.9 7.8 16.9 10.2 0 2.4 3 12.4 0.3 17.2-2.7 4.8-3 3.6-9 6.6z"/>
				<path id="&lt;Path&gt;" class="s1" d="m119.6 143.6c1.3 0.9 2.7 1.8 4 2.7 4.2 3 8.3 7 3.3 11.4-1.6 1.4-4.4 0.8-6.4 1.3-2.4 0.5-4.5 1.3-6.9 0.6-3.4-1-3.5-3.3-2.2-6.1 1.3-3.1 2.4-14 8.2-9.9z"/>
				<path id="&lt;Path&gt;" class="s1" d="m177.4 88.7c0 10.1-1.8 19.9-4.9 29-1.9-0.7-4-1.3-6.5-1.6-20.5-3-22.6 28.3-30.4 28.6-7.9 0.3-12.1-13.6-13.3-36.8-1.2-23.2 6.3-12.9 16.6-36.4 10.2-23.5-1.8-16.9-9.4-33.2-3.8-8.2 0.4-17.8 5.5-25.1 25.4 15.5 42.4 43.5 42.4 75.5z"/>
				<path id="&lt;Path&gt;" class="s1" d="m20.3 33.1c12.7-15.8 30.8-27 51.4-31.1 4 3.7 8.3 7.4 10.8 8.9 6.1 3.6 14.2 16.3 14.2 19.6 0 3.3 1.8 21.1-8.1 25.3-10 4.2-17.5-2.4-17.5 7.8 0 10.3 0.3 22 2.1 30.8 1.8 8.7-24.1 10.2-28.3 6.6-4.2-3.6-4.9-11.4-1.8-22.6 3-11.1 15.3-14.2 6-27.1-9.4-13-10.9-12.7-18.1-16.9-3.9-2.3-7.8-0.6-10.7-1.3z"/>
				<path id="&lt;Path&gt;" class="s1" d="m122.3 75.8c-1.2 2.7-1.5 5.8-3 8.3-1.4 2.3-3.6 3.5-6 4.7-0.4 0.2-4 2-3.8 0.7 0.3-2.5 0-5.8-0.3-7-0.3-1.2-2.3-14.1-1.9-17.8 0.6-4.2 3.2-8.6 7.4-9.9q1.4-0.5 2.9-0.5c2.8-0.1 5.8 1 7.5 3.3 4.2 5.8-0.5 12.7-2.8 18.2z"/>
			</g>
			<g id="&lt;Group&gt;">
				<path id="&lt;Path&gt;" class="s2" d="m154 107.6c-3.9 4-6.3 11.3-12.9 8.5-3.1-1.3-0.5-5.4-0.2-7.8q0.3-3.8 0.4-7.5c0.1-3.5-0.5-7.2 1.6-10.2 2-2.8 5.7-5.4 9.2-6.5q1.3-0.5 2.6-0.6c2.6-0.4 5.1 0.6 7 2.3 3.4 3.1 5.8 8.2 4.7 12.8-0.6 2.2-1.9 2.8-3.9 3.6-3.1 1.2-6.3 3-8.5 5.4z"/>
				<path id="&lt;Path&gt;" class="s2" d="m157.4 32.8c0.4 2.4 0.2 2.5 0.8 4.3 0.7 2.3 2.5 4.8 2.5 6.5 0 2.1-0.8 4.2-1.5 6.2-0.7 2.2-1 3.1-0.6 5.6 0.5 2.7 1.1 6.2 0.1 8.9-0.9 2.4-3.4 2.2-5.6 2.1-5.4-0.2-5.6-2.5-5.6-7.3 0-4.3 1.5-8.4 2.4-12.6 0.6-2.9 1.8-6.1-1.7-7.4-4-1.6-7.5-7.2-6.4-11.6 0.5-2.1 1.5-5 3-7.3 4.6 3.7 8.9 8 12.6 12.6z"/>
				<path id="&lt;Path&gt;" class="s2" d="m88 139c-1 3.8-3.6 5.8-7.3 6.5-4.3 0.8-8.6 1-12.8 1.6-4.1 0.6-8.1 1.8-12.2 1.5-0.9-0.1-9-0.5-7.9-2.7 2.9-5.8 8.5-8.9 14.4-10.9q2-0.7 4-1.3 2.4-0.8 4.9-1.5c2.4-0.8 4.9-2.3 7.5-2.2 4.8 0.2 10.8 3.6 9.4 9z"/>
				<path id="&lt;Path&gt;" class="s2" d="m68 30.5c0.2-1.2 2-1.6 0.2-4.4-1.8-2.8-3-6.4-3-6.5-1.2-3.3 1.1-6.6 4.6-6.8 0.9 0 1.9 0.1 2.8 0.5 4.8 2.2 10.1 6.3 12 11.4 1.9 4.9 2.7 11.4-0.4 16-1.3 2-3.5 3.4-5.4 4.9-0.7 0.5-5.1-1.9-5.8-2.3-1.4-0.7-3-2.6-4.6-1.4-4 3-7.1-0.1-9.8-2.9-1.5-1.7-4.4-8.8 0-9.1 0.8-0.1 2.1 1.1 3 1.3 1.1 0.3 6.1 1.1 6.4-0.7z"/>
			</g>
		</g>
		<g id="&lt;Group&gt;">
			<path id="&lt;Path&gt;" class="s3" d="m159.8 35.8c11 14.7 17.6 33 17.6 52.9 0 48.8-39.6 88.4-88.4 88.4-27.7 0-52.4-12.8-68.6-32.7 58.2 5.5 115.9-72.4 139.4-108.6z"/>
			<path id="&lt;Path&gt;" class="s3" d="m176.8 79q0.6 4.8 0.6 9.7c0 48.8-39.6 88.4-88.4 88.4-24.3 0-46.2-9.8-62.2-25.6 71.1 19.7 124.7-37.3 150-72.5z"/>
		</g>
		<path id="&lt;Path&gt;" class="s4" d="m116.3 22.4c11.8 19.4-0.9 48.6-28.3 65.2-27.3 16.6-59.1 14.4-70.8-5-11.8-19.4 0.9-48.5 28.3-65.2 27.3-16.6 59.1-14.4 70.8 5z"/>
		<path id="&lt;Path&gt;" class="s5" d="m90.9 20.2c7 11.6-1.7 29.8-19.6 40.6-17.8 10.8-37.9 10.2-45-1.3-7-11.6 1.8-29.8 19.6-40.6 17.8-10.8 38-10.2 45 1.3z"/>
	</g>
</svg>