<svg version="1.2" xmlns="http://www.w3.org/2000/svg" viewBox="0 0 274 274" width="500" height="500">
	<title>&lt;Group&gt;</title>
	<defs>
		<linearGradient id="g1" x1="139" y1="-11" x2="194.3" y2="57.9" gradientUnits="userSpaceOnUse">
			<stop offset="0" stop-color="#ffffff"/>
			<stop offset="1" stop-color="#fefefe" stop-opacity="0"/>
		</linearGradient>
	</defs>
	<style>
		.s0 { fill: #f58466 } 
		.s1 { fill: #e05b41 } 
		.s2 { fill: #fed09e } 
		.s3 { opacity: .2;fill: #212a3c } 
		.s4 { opacity: .3;fill: url(#g1) } 
		.s5 { opacity: .3;fill: #ffffff } 
	</style>
	<g id="&lt;Group&gt;">
		<path id="&lt;Path&gt;" class="s0" d="m274 136.9c0 75.5-61.3 136.8-136.9 136.8-75.5 0-136.8-61.3-136.8-136.8 0-75.6 61.3-136.9 136.8-136.9 75.6 0 136.9 61.3 136.9 136.9z"/>
		<g id="&lt;Group&gt;">
			<path id="&lt;Path&gt;" class="s1" d="m258 201c-9.6 18.1-23.2 33.8-39.6 45.9-32 1.7-86.9 4.5-102.3 5.1-10.7 0.4-33.1 0-53.6-0.5-22.2-14.5-39.9-35.2-50.6-59.7 7.7 0.4 24 3.4 32.2 4.6 9.9 1.5 27.6 9.5 46.2 9.5 18.6 0 26.8-5.4 29.2-6.3 2.3-0.8 24 0 43.2 0 16.1 0 75.9 1 95.3 1.4z"/>
			<path id="&lt;Path&gt;" class="s1" d="m29.4 52.6l22.5-2.9c0 0 5.7 0.2 8 1.3 2.3 1 15.6 2.1 16.5 2.3 0.8 0.2 15.6 1.7 16.7 2.1 1 0.4 22.8 1.5 24.5 1.3 1.6-0.2 8.4-1.3 8.4-1.3 0 0 82.8 0.8 88.9 0.2 6.1-0.6 18.8-1.7 25.5-0.6 1.9 0.3 4.4 0.5 6.9 0.8 6.6 8.9 12.1 18.6 16.4 29l-8.5 1.9c0 0-11.8 0.4-12.9 0.4-1 0-35.2-3.4-37.1-3.4-1.9 0-33.4 2.1-33.4 2.1l-24.5 2.1-71.5 1.5-20.5 0.4c0 0-22.8 0-24.5 0-1.7 0-19.9-2.7-19.9-2.7h-1.2c4.9-12.5 11.6-24.1 19.7-34.5z"/>
		</g>
		<g id="&lt;Group&gt;">
			<path id="&lt;Path&gt;" class="s2" d="m6.9 94.8q1.7-5.2 3.8-10.3l18.7-0.2 16.9-1.7c0 0 4.5-0.5 9.6-0.5 5.1 0 13 0.5 16.9 0 3.9-0.6 14.6-1.1 18-1.7 3.4-0.6 37.2-1.7 40.6-1.7 3.3 0 22.5 0 25.3 0 2.8 0 11.8-0.6 17.4 0 5.7 0.6 20.9 1.7 20.9 1.7l8.4 0.6c0 0 33.2 0 35.5 0 2.2 0 4.5 0 7.3 0 2.8 0 10.1 0 13.5 0 0.6 0 1.4 0 2.3 0q2.5 5.5 4.5 11.2c-3.3-0.3-7.2-0.8-9-1.1-3.4-0.6-23.1-3.4-25.9-3.4-2.8 0-23.7-0.6-23.7-0.6 0 0-34.3 2.3-37.1 2.3-2.9 0-55.2 0.6-55.2 0.6 0 0-11.3 0-15.8 0.5-4.5 0.6-33.2 3.4-33.2 3.4l-37.7 4.5h-7.3c0 0-8.4-1.7-14.7-3.6z"/>
			<path id="&lt;Path&gt;" class="s2" d="m229.6 237.7c-5.8 5.3-12.1 10.2-18.8 14.5-4.1-0.2-8.2-0.3-10.8 0.1-3.9 0.5-14.6 1.1-18 1.7-3.4 0.5-37.1 1.7-40.5 1.7-3.4 0-22.5 0-25.3 0-2.9 0-11.9 0.5-17.5 0-5.6-0.6-20.8-1.7-20.8-1.7l-8.5-0.6c0 0-1.5 0-3.9 0q-4.9-3-9.5-6.4c4.8 0.1 8.9 0.2 8.9 0.2 0 0 34.4-2.2 37.2-2.2 2.8 0 55.2-0.6 55.2-0.6 0 0 11.2 0 15.7-0.6 4.5-0.5 33.2-3.3 33.2-3.3z"/>
			<path id="&lt;Compound Path&gt;" fill-rule="evenodd" class="s2" d="m260.5 196q-2.7 5.7-5.9 11c-2 0-5.7-0.2-7.8-0.9-2.8-0.8-11.3-1.7-15.8-1.7-4.5 0-24.8-1.3-30.5-1.3-5.6 0-18.6 0-18.6 0-11.1 0-22.2-0.4-33.2 0.3-11.2 0.6-21.6 3-32.3 6.1-6.4 1.8-13.3 2.2-19.8 2.8-16.3 1.6-31.2-6.4-46.1-11.6-7.5-2.6-15.6-3.4-23.3-4.7-5.1-0.9-9.1-2.2-10.8-2.2-0.4 0-1.8 0-3.6 0q-1.4-2.9-2.6-5.8c15.8-0.5 31.5-0.9 47.2-1.6 29.2-1.3 58.9 3.2 88.1 4.6 8.5 0.4 17 0.8 25.5 1.4 9.1 0.6 18.2 1.6 27.3 2.3 12.4 0.9 26.5 1.3 31 1.3q6.8 0 22.1 0c3.1 0 6.2 0 9.1 0zm-157.9 3.6c0.1-3-5.2-5.7-11.9-5.9-6.7-0.2-12.1 2-12.2 5.1-0.1 3 5.2 5.7 11.8 5.9 6.7 0.2 12.2-2.1 12.3-5.1z"/>
			<path id="&lt;Compound Path&gt;" fill-rule="evenodd" class="s2" d="m42 38.6c8.7-1.3 17.5-2.5 26.3-3.3 26.5-2.2 55.2 0 81.6 2.3 16.4 1.1 32.7 3.9 49 2.2 11.3-1.1 21.4-2.2 32.7-1.6q0.1 0 0.3 0c8.7 8.4 16.4 17.9 22.6 28.4-10 0.3-21.2 0.5-32.5 0.3-34.9-0.6-52.4-5.7-64.2-5.7-11.8 0-40.5-0.5-47.3-0.5-6.7 0-38.3-2.3-44.5-2.3-6.2 0-30.4-0.5-38.2 0q-1.5 0.1-2.9 0.2c5.1-7.2 10.8-13.9 17.1-20zm37 8.6c-0.2 4.1 12.3 7.9 27.9 8.4 15.5 0.6 28.3-2.4 28.4-6.5 0.1-4.1-12.4-7.9-27.9-8.4-15.6-0.5-28.3 2.4-28.4 6.5z"/>
			<path id="&lt;Compound Path&gt;" fill-rule="evenodd" class="s2" d="m0.3 136.4q0.1-6.1 0.6-12.1 2 0 4.3 0c18 0 36-0.1 53.9 0 14.4 0.1 29.4 1.4 43.5-1.6 18.9-4 36-13.6 55.7-13.2 12.4 0.2 24.6 3.2 36.3 7.2 14.8 5.1 28.5 12.4 44.4 13.1 11.7 0.5 23.2 0.8 34.8 1.8 0.1 1.8 0.2 3.5 0.2 5.3 0 1.6-0.1 3.2-0.2 4.9-8.2 0-18.6 0-18.6 0-11 1.3-21.8 2.3-32.4 5.5-10.8 3.2-21.2 7.5-32.2 9.9-22.7 4.9-46.6 4-68.5-3.5-7.8-2.7-15.4-6.6-23.5-8.2-11.4-2.3-23.4-2.8-35-4.7-13.9-2.3-28.1-1.2-42-3-4.5-0.5-11.9-1.7-13.6-1.7-0.5 0-3.7 0.2-7.7 0.3zm129.4-1c-0.3 7.9 13.6 14.8 31 15.4 17.4 0.5 31.7-5.4 32-13.3 0.3-8-13.6-14.9-31-15.4-17.4-0.6-31.8 5.3-32 13.3z"/>
		</g>
		<path id="&lt;Path&gt;" class="s3" d="m247.4 55.8c10.9 14.9 19 32.1 23.3 51.2 16.4 73.7-30 146.9-103.7 163.4-53.3 11.9-106.3-9.1-137.8-49.5 92.1 17.6 185.2-113.1 218.2-165.1z"/>
		<path id="&lt;Path&gt;" class="s3" d="m272.9 119.8c8.7 69.2-36.4 135-105.9 150.6-49.5 11-98.8-6.3-130.8-41.2 114.6 39.8 199.9-56.4 236.7-109.4z"/>
		<path id="&lt;Path&gt;" class="s4" d="m176.3 30.4c18.2 30-1.4 75.1-43.7 100.9-42.4 25.7-91.5 22.2-109.7-7.7-18.2-30 1.4-75.2 43.8-100.9 42.3-25.7 91.4-22.3 109.6 7.7z"/>
		<path id="&lt;Path&gt;" class="s5" d="m137 27.1c10.9 17.9-2.7 46-30.3 62.7-27.6 16.8-58.8 15.8-69.6-2.1-10.9-17.9 2.7-46 30.3-62.7 27.6-16.8 58.7-15.9 69.6 2.1z"/>
	</g>
</svg>