<svg version="1.2" xmlns="http://www.w3.org/2000/svg" viewBox="0 0 234 235" width="500" height="502">
	<title>&lt;Group&gt;</title>
	<defs>
		<linearGradient id="g1" x1="131" y1="-7.6" x2="183.7" y2="59.9" gradientUnits="userSpaceOnUse">
			<stop offset="0" stop-color="#ffffff"/>
			<stop offset="1" stop-color="#fefefe" stop-opacity="0"/>
		</linearGradient>
	</defs>
	<style>
		.s0 { fill: #f7941e } 
		.s1 { fill: #f15a29 } 
		.s2 { fill: #ea3232 } 
		.s3 { opacity: .2;fill: #212a3c } 
		.s4 { opacity: .3;fill: url(#g1) } 
		.s5 { opacity: .3;fill: #ffffff } 
	</style>
	<g id="&lt;Group&gt;">
		<g id="&lt;Group&gt;">
			<path id="&lt;Path&gt;" class="s0" d="m233.4 117.6c0 64.5-52.2 116.7-116.7 116.7-64.4 0-116.6-52.2-116.6-116.7 0-64.4 52.2-116.6 116.6-116.6 64.5 0 116.7 52.2 116.7 116.6z"/>
			<g id="&lt;Group&gt;">
				<path id="&lt;Path&gt;" class="s1" d="m226.2 77.2c4.7 12.6 7.2 26.2 7.2 40.4 0 64.5-52.2 116.7-116.7 116.7-64.4 0-116.6-52.2-116.6-116.7 0-15.6 3.1-30.6 8.7-44.2 3.7 0.2 7.2 0.6 10.3 1 13 1.7 13.8 1.7 25.9-1.7 19-4.3 32.9 3.4 51 5.2 17.3 1.7 31.1-9.5 47.5-10.4 10.4-0.9 12.1 2.6 21.6 6.9 20.4 10.2 42.6 11.9 61.1 2.8z"/>
			</g>
			<g id="&lt;Group&gt;">
				<path id="&lt;Path&gt;" class="s2" d="m178.1 139.2c14.8-6.7 36.3-18.6 55.3-23.2 0 0.6 0 1.1 0 1.6 0 64.5-52.2 116.7-116.7 116.7-57.8 0-105.8-42.1-115-97.3q0.9 0.3 1.8 0.5c9.5 3.5 16.5 3.5 26 5.2 25 4.3 35.4 26.8 63.9 21.6 13.8-2.6 25.9-0.9 38-7.8 16.5-8.6 30.3-9.5 46.7-17.3z"/>
			</g>
			<path id="&lt;Path&gt;" class="s1" d="m37.5 32.1q3.5-3.3 7.2-6.2c3 0 6.4 0.1 6.4 0.1 0 0 10.1 0 11 0 0.9 0 27.9-0.4 27.9-0.4 0 0 5.1-0.7 6-0.7 0.6 0 7.5 0.3 11 0.4 1.3 0 2.2 0.1 2.2 0.1 0 0-3.7 0.2-6.9 0.8-3.3 0.7-7.2 1.5-8.2 1.8-1.1 0.2-2.8 0-4.8 0.2-1.9 0.2-5 0.6-7.3 1.3-2.4 0.6-5.9 0.4-7.8 0.8-2 0.5-4.1 0.7-8.2 0.9-4.1 0.2-12.1 0.9-14.5 0.9-2.4 0-7.1 0-8.2 0-1 0-3.2 0-5.8 0z"/>
			<path id="&lt;Path&gt;" class="s1" d="m190.6 208q-1.6 1.2-3.1 2.4c-4 0.2-7 0.4-7 0.4 0 0-10 0.3-14.2 0.1-4.3-0.1-8.5-1.2-11.5-1.2-3 0-7 0-13.2 0-6.2 0-19.4-2-19.4-2 0 0 15.4-1.3 28.6-1.3 13.2 0 27.6 1.8 34 2 1.6 0 3.6-0.2 5.8-0.4z"/>
			<path id="&lt;Path&gt;" class="s1" d="m196.6 59c2 0 5-0.1 7.4-0.5 2.5-0.4 5.9 0.1 7.9-0.1 1.4-0.2 3-0.2 5.3-0.2q1.5 2.7 3 5.4c-7.4-0.6-24.5-2.1-24.5-2.1 0 0-5.2 0.1-6.1 0.1-0.6-0.1-7.4-1-10.9-1.5-1.3-0.2-2.1-0.3-2.1-0.3 0 0 3.6 0.2 6.9-0.2 3.3-0.3 7.3-0.7 8.4-0.9 1.1-0.1 2.8 0.3 4.7 0.3z"/>
			<path id="&lt;Path&gt;" class="s1" d="m102.1 43.1c10.1 0 21.1 1.8 25.9 2 4.9 0.1 14.5-2.9 16.4-2.9 1.9 0 18.8 0 19.3 0 0.5 0 17.8 1.3 17.8 1.3 0 0 2.6 0 3.9 0.1 1.3 0.2 1.9 0.2 2.6 0.2 0.6 0 5.2 0 5.2 0 0 0 3.7 0.8 2.4 1.1-1.3 0.3-2.9 0.3-4.2 0.3-1.3 0-2.4 0.5-6.6 0.5-4.3 0-5.1-0.1-9-0.1-3.8 0-5.3-0.7-9.7-0.7-4.4 0-5-0.1-9.2 0.2-4.2 0.3-7.3 0-12.3 0.6-5.1 0.7-19.8 1.8-19.8 1.8 0 0-7.6 0.3-10.9 0.2-3.2-0.2-6.4-1.3-8.7-1.3-2.3 0-5.4 0-10.1 0-4.7 0-14.7-2-14.7-2 0 0 11.7-1.3 21.7-1.3z"/>
			<g id="&lt;Group&gt;">
				<path id="&lt;Path&gt;" class="s0" d="m232.8 105.7q-0.5 0-1 0c-2.8 0.1-3.9-0.6-7-0.5-3.1 0.1-3.6-0.1-6.6 0.4-3 0.5-5.2 0.2-8.8 1.1-3.6 0.9-14.1 2.6-14.1 2.6 0 0-5.4 0.5-7.7 0.4-2.4-0.1-4.7-1.3-6.4-1.2-1.6 0-3.8 0.1-7.2 0.2-3.3 0.1-10.6-1.9-10.6-1.9 0 0 8.3-1.8 15.5-2 7.2-0.3 15.2 1.5 18.6 1.6 3.5 0 10.2-3.8 11.6-3.9 1.4 0 13.5-0.4 13.9-0.4 0.2-0.1 5.7 0.4 9.5 0.7q0.1 1.4 0.3 2.9z"/>
				<path id="&lt;Path&gt;" class="s0" d="m50.6 99.8c10 0 21.1 1.8 25.9 2 4.9 0.2 14.4-2.9 16.4-2.9 1.9 0 18.8 0 19.3 0 0.4 0 17.8 1.3 17.8 1.3 0 0 2.6 0 3.9 0.1 1.3 0.2 1.9 0.2 2.6 0.2 0.6 0 5.1 0 5.1 0 0 0 3.8 0.8 2.5 1.1-1.3 0.4-2.9 0.4-4.2 0.4-1.3 0-2.5 0.4-6.7 0.4-4.2 0-5-0.1-8.9-0.1-3.9 0-5.3-0.7-9.7-0.7-4.4 0-5-0.1-9.2 0.2-4.3 0.3-7.3 0-12.4 0.6-5 0.7-19.7 1.8-19.7 1.8 0 0-7.6 0.3-10.9 0.2-3.2-0.2-6.5-1.3-8.7-1.3-2.3 0-5.4 0-10.1 0-4.7 0-14.7-2-14.7-2 0 0 11.6-1.3 21.7-1.3z"/>
				<path id="&lt;Path&gt;" class="s0" d="m120.3 139.4c-2.5 0.3-4.4 0-7.5 0.6-3.1 0.7-12.2 1.8-12.2 1.8 0 0-4.7 0.3-6.7 0.2-2-0.2-4-1.3-5.4-1.3-1.4 0-3.3 0-6.2 0-2.8 0-9-2-9-2 0 0 7.1-1.3 13.3-1.3 6.2 0 13 1.8 16 2 3 0.1 8.9-2.9 10.1-2.9 1.2 0 11.5 0 11.8 0 0.3 0 11 1.3 11 1.3 0 0 1.6 0 2.4 0.1 0.8 0.2 1.2 0.2 1.6 0.2 0.4 0 3.2 0 3.2 0 0 0 2.3 0.8 1.5 1.1-0.8 0.3-1.8 0.3-2.6 0.3-0.8 0-1.5 0.5-4.1 0.5-2.6 0-3.1-0.1-5.5-0.1-2.4 0-3.3-0.7-6-0.7-2.7 0-3.1-0.1-5.7 0.2z"/>
			</g>
			<path id="&lt;Path&gt;" class="s1" d="m124 186.1c-6.6 0.7-26 1.8-26 1.8 0 0-10 0.3-14.2 0.1-4.3-0.1-8.6-1.2-11.5-1.2-3 0-7.1 0-13.2 0-6.2 0-19.4-2-19.4-2 0 0 15.3-1.3 28.5-1.3 13.2 0 27.7 1.8 34.1 2 6.4 0.1 18.9-3 21.5-3 2.5 0 24.7 0 25.3 0 0.6 0 23.4 1.3 23.4 1.3 0 0 3.4 0 5.1 0.2 1.7 0.2 2.6 0.2 3.4 0.2 0.9 0 6.8 0 6.8 0 0 0 4.9 0.8 3.2 1.1-1.7 0.3-3.8 0.3-5.5 0.3-1.7 0-3.2 0.5-8.7 0.5-5.6 0-6.6-0.2-11.7-0.2-5.2 0-7.1-0.6-12.8-0.6-5.8 0-6.6-0.2-12.1 0.2-5.6 0.3-9.6 0-16.2 0.6z"/>
			<path id="&lt;Path&gt;" class="s1" d="m227.3 154.8q-0.9 2.8-2 5.6c-5.1 0.4-26.8 1.8-26.8 1.8 0 0-5.1 0.9-6 1-0.6 0-7.5 0.1-11 0.2-1.3 0-2.2 0-2.2 0 0 0 3.7-0.4 6.9-1.2 3.2-0.8 7-1.9 8.1-2.2 1.1-0.2 2.8-0.1 4.7-0.4 2-0.3 5-0.9 7.3-1.7 2.3-0.7 5.8-0.7 7.7-1.2 1.9-0.6 4.1-0.9 8.2-1.3 1.4-0.2 3.2-0.4 5.1-0.6z"/>
			<path id="&lt;Path&gt;" class="s1" d="m60.4 212.9c-2.4 0.5-5.9 0.1-7.8 0.4q-1 0.2-2.2 0.3-3.5-2.5-6.8-5.2c7.1 0.3 25 1 25 1 0 0 5.2-0.3 6-0.3 0.7 0.1 7.5 0.7 11 1 1.3 0.1 2.2 0.2 2.2 0.2 0 0-3.7 0-7 0.5-3.2 0.4-7.2 1.1-8.3 1.2-1.1 0.2-2.8-0.1-4.7 0-2 0.1-5 0.4-7.4 0.9z"/>
		</g>
		<g id="&lt;Group&gt;">
			<path id="&lt;Path&gt;" class="s3" d="m233.4 117.6c0 64.5-52.2 116.7-116.7 116.7-35 0-66.3-15.4-87.7-39.9 74.4-3 147.3-93.3 182.7-144.5 13.7 19.1 21.7 42.5 21.7 67.7z"/>
			<path id="&lt;Path&gt;" class="s3" d="m233.4 117.6c0 64.5-52.2 116.7-116.7 116.7-27.5 0-52.8-9.6-72.8-25.6 85.6 14 152.5-48.3 189.4-94.8 0.1 1.3 0.1 2.5 0.1 3.7z"/>
		</g>
		<path id="&lt;Path&gt;" class="s4" d="m166.6 32.9c17.3 29.4-2.4 73.1-44 97.5-41.6 24.4-89.3 20.4-106.6-9-17.3-29.4 2.4-73.1 44-97.5 41.6-24.4 89.3-20.4 106.6 9z"/>
		<path id="&lt;Path&gt;" class="s5" d="m128.4 29.1c10.3 17.6-3.3 44.7-30.4 60.6-27 15.9-57.4 14.6-67.7-3-10.3-17.5 3.3-44.7 30.4-60.6 27-15.9 57.4-14.6 67.7 3z"/>
	</g>
</svg>