<svg version="1.2" xmlns="http://www.w3.org/2000/svg" viewBox="0 0 130 130" width="500" height="500">
	<title>&lt;Group&gt;</title>
	<defs>
		<linearGradient id="g1" x1="70" y1="-4.1" x2="96.4" y2="29.7" gradientUnits="userSpaceOnUse">
			<stop offset="0" stop-color="#ffffff"/>
			<stop offset="1" stop-color="#fefefe" stop-opacity="0"/>
		</linearGradient>
	</defs>
	<style>
		.s0 { fill: #f15a29 } 
		.s1 { fill: #f7941e } 
		.s2 { fill: #ef4136 } 
		.s3 { opacity: .3;fill: #414042 } 
		.s4 { opacity: .2;fill: #212a3c } 
		.s5 { opacity: .3;fill: url(#g1) } 
		.s6 { opacity: .3;fill: #ffffff } 
	</style>
	<g id="&lt;Group&gt;">
		<g id="&lt;Group&gt;">
			<g id="&lt;Group&gt;">
				<path id="&lt;Path&gt;" class="s0" d="m129.2 65.3c0 35.6-28.9 64.5-64.5 64.5-35.6 0-64.5-28.9-64.5-64.5 0-35.6 28.9-64.5 64.5-64.5 35.6 0 64.5 28.9 64.5 64.5z"/>
				<path id="&lt;Path&gt;" class="s1" d="m9.8 31.5c26.2-0.4 65.7-2.8 99.3-13 6.9 6.6 12.3 14.6 15.8 23.6-22.5 6.7-67.7 17.1-124.2 14.9 1.2-9.3 4.4-17.9 9.1-25.5z"/>
				<path id="&lt;Path&gt;" class="s2" d="m127.5 50.5c0.9 3.8 1.4 7.7 1.6 11.7-18.2 5.2-68.2 17.2-128.2 12.5q-0.6-4.2-0.7-8.5c22.9 0.2 84-1 127.3-15.7z"/>
				<g id="&lt;Group&gt;">
					<path id="&lt;Path&gt;" class="s1" d="m14.7 106.1q0.7 0.7 1.3 1.5c-5.8-6.7-10.3-14.7-13-23.4 27.6 0.6 78.4-0.4 125.9-12.4-0.8 7.8-3 15.2-6.3 21.9-36.8 7.1-75.2 10.6-107.9 12.4z"/>
				</g>
			</g>
			<path id="&lt;Path&gt;" class="s2" d="m112.7 108.4q0 0 0 0-1.5 1.6-3 3.1-0.1 0.1-0.1 0.1-1.5 1.5-3.2 2.9 0 0-0.1 0-1.6 1.4-3.3 2.7-0.1 0.1-0.3 0.2-1.6 1.2-3.3 2.3-0.1 0-0.2 0.1-1.8 1.1-3.6 2.1-0.2 0.1-0.5 0.3-1.7 0.9-3.5 1.7-0.1 0.1-0.2 0.1-1.9 0.9-3.8 1.6-0.4 0.1-0.8 0.3-1.7 0.6-3.6 1.2-0.1 0-0.3 0.1-1.9 0.6-3.9 1-0.5 0.1-0.9 0.2-1.9 0.4-3.9 0.7-0.1 0-0.2 0-2 0.3-4.1 0.5-0.5 0-1 0.1-2.1 0.1-4.2 0.1-2.4 0-4.8-0.2-0.7 0-1.3-0.1-2-0.2-4-0.5-0.4-0.1-0.8-0.1-2.2-0.4-4.4-0.9-0.7-0.2-1.3-0.4-1.7-0.4-3.3-1-0.6-0.2-1.2-0.4-2.1-0.7-4.1-1.5-0.6-0.3-1.3-0.6-1.4-0.6-2.8-1.3-0.7-0.4-1.4-0.8-1.8-1-3.6-2.1-0.6-0.4-1.2-0.8-1.2-0.8-2.4-1.6-0.8-0.6-1.5-1.2-1.1-0.8-2.2-1.7-1-0.9-2-1.8-1-0.9-2-1.9-0.8-0.8-1.5-1.5-0.8-0.9-1.6-1.8-0.6-0.8-1.3-1.5c32.7-1.8 71.1-5.3 107.9-12.4q0 0 0 0c-2.6 5.4-6 10.3-9.9 14.7z"/>
			<path id="&lt;Path&gt;" class="s3" d="m85.7 16.3c0.3 1.9-7.3 4.5-16.9 5.9-9.5 1.3-17.5 0.8-17.8-1.1-0.2-1.9 7.5-3.3 17-4.6 9.6-1.4 17.4-2.2 17.7-0.2z"/>
			<path id="&lt;Path&gt;" class="s3" d="m56.2 12.2c0.2 1.2-4.7 2.9-11 3.8-6.2 0.9-11.4 0.6-11.6-0.7-0.2-1.2 4.8-2.1 11.1-3 6.2-0.9 11.3-1.4 11.5-0.1z"/>
			<path id="&lt;Path&gt;" class="s3" d="m44.9 48.1c0.1 2-7.7 3.9-17.3 4.4-9.7 0.5-17.6-0.7-17.7-2.6-0.1-1.9 7.7-2.6 17.4-3.1 9.6-0.5 17.5-0.6 17.6 1.3z"/>
			<path id="&lt;Path&gt;" class="s3" d="m103.8 108c0.4 1.9-7.1 4.8-16.6 6.4-9.6 1.6-17.6 1.4-17.9-0.6-0.3-1.9 7.4-3.5 16.9-5.1 9.5-1.6 17.3-2.6 17.6-0.7z"/>
			<path id="&lt;Path&gt;" class="s3" d="m77.2 35.3c0.2 1.2-4.5 2.9-10.5 3.7-6 0.8-11 0.5-11.2-0.8-0.1-1.2 4.7-2.1 10.7-2.9 6-0.8 10.8-1.3 11 0z"/>
			<path id="&lt;Path&gt;" class="s3" d="m57.6 91.6c0.1 1.2-4.6 2.8-10.6 3.5-6 0.7-11 0.2-11.2-1-0.1-1.3 4.7-2 10.7-2.7 6-0.7 10.9-1.1 11.1 0.2z"/>
			<path id="&lt;Path&gt;" class="s3" d="m116.3 35.8c0.3 1.4-5.1 3.9-12.2 5.5-7.1 1.6-13.1 1.7-13.4 0.2-0.3-1.4 5.3-2.9 12.4-4.5 7.1-1.6 12.9-2.7 13.2-1.2z"/>
			<path id="&lt;Path&gt;" class="s3" d="m108.2 62.2c0.3 1.5-5.6 3.9-13.2 5.4-7.5 1.4-13.9 1.3-14.2-0.2-0.3-1.5 5.8-2.9 13.4-4.3 7.5-1.5 13.7-2.4 14-0.9z"/>
		</g>
		<g id="&lt;Group&gt;">
			<path id="&lt;Path&gt;" class="s4" d="m129.2 65.3c0 35.6-28.9 64.5-64.5 64.5-19.1 0-36.3-8.3-48.1-21.5 40.5-5 79.5-52.3 100-81.3 7.9 10.7 12.6 24 12.6 38.3z"/>
			<path id="&lt;Path&gt;" class="s4" d="m129.2 65.3c0 35.6-28.9 64.5-64.5 64.5-14 0-26.9-4.4-37.4-12 45.3 3.9 81-28.3 101.9-53.9q0 0.7 0 1.4z"/>
		</g>
		<path id="&lt;Path&gt;" class="s5" d="m86.7 17.1c8.6 14.8-1.2 36.6-22 48.8-20.8 12.3-44.7 10.2-53.4-4.5-8.6-14.7 1.2-36.6 22-48.8 20.8-12.2 44.7-10.2 53.4 4.5z"/>
		<path id="&lt;Path&gt;" class="s6" d="m67.6 15.2c5.1 8.8-1.7 22.4-15.2 30.4-13.6 7.9-28.8 7.3-33.9-1.5-5.2-8.8 1.6-22.4 15.2-30.4 13.5-8 28.7-7.3 33.9 1.5z"/>
	</g>
</svg>