<svg version="1.2" xmlns="http://www.w3.org/2000/svg" viewBox="0 0 278 277" width="500" height="498">
	<title>&lt;Group&gt;</title>
	<defs>
		<linearGradient id="g1" x1="151" y1="-13.4" x2="210.8" y2="63.2" gradientUnits="userSpaceOnUse">
			<stop offset="0" stop-color="#ffffff"/>
			<stop offset="1" stop-color="#fefefe" stop-opacity="0"/>
		</linearGradient>
	</defs>
	<style>
		.s0 { fill: #196ea5 } 
		.s1 { fill: #27aae1 } 
		.s2 { fill: #5fb2e0 } 
		.s3 { fill: #a4dbf4 } 
		.s4 { fill: #0e577f } 
		.s5 { opacity: .2;fill: #212a3c } 
		.s6 { opacity: .3;fill: url(#g1) } 
		.s7 { opacity: .3;fill: #ffffff } 
	</style>
	<g id="&lt;Group&gt;">
		<g id="&lt;Group&gt;">
			<g id="&lt;Group&gt;">
				<path id="&lt;Path&gt;" class="s0" d="m277.6 140.5c-1.1 76.4-63.9 137.5-140.3 136.4-76.4-1.1-137.4-64-136.3-140.4 1.1-76.4 63.9-137.4 140.3-136.3 76.4 1.1 137.4 63.9 136.3 140.3z"/>
				<g id="&lt;Group&gt;">
					<path id="&lt;Path&gt;" class="s1" d="m277.6 140.5c0 3.8-0.3 7.6-0.6 11.3-7.3 0.1-13.4 0-14.5 0-9 0.2-18 0.4-27 1.2-10.6 1-19.6 7.6-30.2 8.5-24.8 2.2-49.8 4.1-74.5 1.4-36.1-4-71.3-16.7-107.7-17.2q-11-0.2-21.9-0.3-0.3-4.4-0.2-8.9c0.1-5.8 0.6-11.5 1.3-17.2 16.9 0.8 33.8 1.7 50.4-0.2 23.8-2.6 46.1-12.9 69.9-15.2 24.2-2.3 49.4-1.5 73.1 4.1 17.5 4.1 33.1 13.6 50.4 18.1 10.3 2.7 20.7 2.8 31.2 2.5 0.2 3.9 0.4 7.9 0.3 11.9z"/>
					<path id="&lt;Path&gt;" class="s1" d="m244.1 228.8c-2.7 0.3-4.9 0.3-10.4 0.2-7.4-0.1-16.9-1.6-22.8-0.3-6 1.2 6.6 0.1-23.6 1-30.2 0.9-63.3 1.7-67 1.7-3.7-0.1-11.1 1.2-19.9-1-8.8-2.1-26.4-4.4-34.5-4.5-7.8-0.1-21.7-2.2-35.8-2.5-8.3-10.6-15-22.5-19.9-35.2l46.8-4.9 47.7 7.5c0 0 14.7 0.9 20.5 4.3 5.9 3.4 30.1 7.8 32.3 7.9 2.2 0 44.9 0.6 44.9 0.6 0 0 8.8 1.5 14.7-0.4 5.9-2 25.8-5.1 31.8-7.7 3.6-1.6 12.3-3.4 18.4-4.5-5.7 13.9-13.6 26.7-23.2 37.8z"/>
					<path id="&lt;Path&gt;" class="s1" d="m66.3 21.1c10.4 0.3 17.6 2.4 27.6 3.2 10.2 0.9 34.5 5.6 49.2 6.5 14.7 0.9 14.7 1.6 18.3 1.7 3.7 0.1 25.8 3.2 36.8 4.1 11 0.9 22.8 1.8 29.4 1.9 2.1 0 4.9 0.3 7.9 0.6 8.9 8.7 16.7 18.5 23.1 29.3-9.6-0.1-20.9-0.3-23.3-0.3-4.5-0.1-16.2 0.4-35.4 4.5-19.2 4-34.7 7.4-89-7.1-33.9-9-69.2-2.9-90.9 3 11.4-19.3 27.3-35.6 46.3-47.4z"/>
				</g>
				<path id="&lt;Path&gt;" class="s2" d="m210.4 134.8c-0.2 10.9-24.2 19.5-53.7 19.1-29.4-0.5-53.2-9.7-53-20.7 0.1-10.9 24.2-19.5 53.6-19.1 29.5 0.5 53.2 9.7 53.1 20.7z"/>
				<path id="&lt;Path&gt;" class="s3" d="m186.8 134.4c-0.1 6.2-13.5 10.9-29.9 10.7-16.5-0.2-29.8-5.4-29.7-11.5 0.1-6.1 13.5-10.9 30-10.7 16.5 0.3 29.7 5.4 29.6 11.5z"/>
				<path id="&lt;Path&gt;" class="s2" d="m198.3 55.5c-0.3 6.6-15 11.5-32.8 10.8-17.9-0.6-32.2-6.5-31.9-13.2 0.2-6.6 14.9-11.5 32.7-10.9 17.9 0.7 32.2 6.6 32 13.3z"/>
				<path id="&lt;Path&gt;" class="s3" d="m184 54.9c-0.2 3.8-8.3 6.5-18.3 6.1-10-0.3-18-3.7-17.9-7.4 0.2-3.7 8.4-6.4 18.4-6 9.9 0.3 17.9 3.6 17.8 7.3z"/>
				<path id="&lt;Path&gt;" class="s3" d="m87.4 43.9c-0.1 2.9-6.5 5-14.2 4.7-7.8-0.3-14-2.8-13.9-5.7 0.1-2.9 6.5-5 14.2-4.7 7.8 0.2 14 2.8 13.9 5.7z"/>
				<path id="&lt;Path&gt;" class="s2" d="m69.4 135.5c0 3.4-12.1 5.9-26.9 5.7-14.8-0.2-26.8-3.1-26.8-6.5 0.1-3.3 12.1-5.9 27-5.7 14.8 0.3 26.8 3.2 26.7 6.5z"/>
				<path id="&lt;Path&gt;" class="s2" d="m236 215.9c-0.1 3-10.8 5.2-23.9 5.1-13.2-0.2-23.8-2.8-23.8-5.8 0.1-3 10.8-5.2 23.9-5 13.2 0.2 23.8 2.7 23.8 5.7z"/>
				<path id="&lt;Path&gt;" class="s3" d="m120.2 209.2c-0.2 4.1-15.1 7-33.4 6.5-18.4-0.5-33.1-4.2-33-8.4 0.1-4.1 15-7.1 33.4-6.6 18.3 0.5 33.1 4.3 33 8.5z"/>
			</g>
			<path id="&lt;Compound Path&gt;" fill-rule="evenodd" class="s4" d="m273.6 171.8q-1.1 4.4-2.5 8.8c-3.8-0.1-7.6-0.1-11.4 0.1-8.7 0.4-16.8 3.1-25.3 4.3-11.7 1.7-24.8 3.3-36.7 3.3-8.2 0-16.3-1.1-24.4-1.8-6.9-0.7-14.3 0.2-21.1-1.4-13.1-3.1-27.2-5.7-40.6-7.4-16.6-2.1-33.5-5.6-50.2-6.8-11.4-0.8-23.4-1.6-34.8-1.7-6.8 0-13.5 0.2-20.3 0.3q-0.9 0-1.8 0-0.6-2.4-1.1-4.8c11.7 0 23.7 1.4 35 2.1 22.9 1.5 45.8 3.6 68.8 4.3 11.9 0.3 23.1 3.5 34.9 5.2 8.3 1.1 15.9 2.3 24.2 1.9 13.1-0.6 26.1 0.1 39.2 0.4 12 0.3 23.8-0.9 35.8-1.1 10.9-0.1 21.7-3 32.3-5.7zm-226.9-79.5c9.5-1.3 17.8-2.7 27.5-2.6q26.4 0.5 52.8 1.2c27.3 0.7 54.7-2.1 81.8 2.4 9.3 1.6 18.3 5 27.8 5.7 11 0.9 23.6-1.9 34.3 0.6 0.3 0.1 0.7 0.1 1.2 0.2-1-3.6-2.2-7.1-3.5-10.6-30.2 0.5-60.7-1.5-90.6-4.6-15.8-1.7-31.8-3.9-47.7-4.9-32.3-1.9-64.6-0.9-96.9-1.2q-9.3-0.2-18.5-0.4-4.9 10-8.1 20.8c13.3-1.7 26.7-4.7 39.9-6.6zm50.7-85.6l21.7 5c0 0 15 0.6 16.5 0.6 1.5 0 23.9 2.5 26.1 2.9 2.2 0.4 21.3 5.1 22.7 5.1 1.5 0.1 13.3 1.3 15.8 1.4 2.2 0 11.2 0.6 14.8 1.1-21.2-13.9-46.5-22.2-73.7-22.6-15.3-0.2-30.1 2.1-43.9 6.5zm73.1 236.8c-1.1 0-12.1 0.9-13.6 1.3-1.5 0.3-17.7 3.4-17.7 3.4 0 0-16.9-1-18-1-1.1 0-16.2-0.2-20.6-0.7-4.4-0.4-32-3.4-32-3.4l-20.1-0.3c23.8 20.8 54.7 33.6 88.8 34.1 33.6 0.4 64.5-11.1 88.8-30.6q0-0.2 0-0.2c0 0-19.1-1.7-20.3-1.7-1.1-0.1-15-0.3-16.9-0.3-1.8 0-17.3-0.6-18.4-0.6z"/>
		</g>
		<g id="&lt;Group&gt;">
			<path id="&lt;Path&gt;" class="s5" d="m277.6 140.5c-1.1 76.4-63.9 137.5-140.3 136.4-41.9-0.7-79.1-19.8-104-49.6 89.4 2.6 178.2-109.9 218.6-169.1 16.6 23.2 26.2 51.7 25.7 82.3z"/>
			<path id="&lt;Path&gt;" class="s5" d="m277.6 140.5c-1.1 76.4-63.9 137.5-140.3 136.4-34.8-0.5-66.4-13.9-90.4-35.4 105.7 23.8 187.7-55.6 230.5-110.8 0.2 3.3 0.3 6.5 0.2 9.8z"/>
		</g>
		<path id="&lt;Path&gt;" class="s6" d="m191.6 32.4c19.6 33.3-2.7 82.9-49.9 110.6-47.1 27.7-101.3 23.1-120.9-10.3-19.6-33.3 2.8-82.9 49.9-110.6 47.2-27.7 101.3-23.1 120.9 10.3z"/>
		<path id="&lt;Path&gt;" class="s7" d="m148.3 28c11.7 20-3.7 50.8-34.4 68.8-30.8 18.1-65.2 16.6-76.9-3.4-11.7-19.9 3.7-50.7 34.5-68.8 30.7-18 65.1-16.5 76.8 3.4z"/>
	</g>
</svg>