<svg version="1.2" xmlns="http://www.w3.org/2000/svg" viewBox="0 0 388 236" width="1000" height="608">
	<title>&lt;Group&gt;</title>
	<defs>
		<linearGradient id="g1" x1="200.1" y1="-9" x2="251" y2="54.2" gradientUnits="userSpaceOnUse">
			<stop offset="0" stop-color="#ffffff"/>
			<stop offset="1" stop-color="#fefefe" stop-opacity="0"/>
		</linearGradient>
	</defs>
	<style>
		.s0 { fill: #ffc585 } 
		.s1 { fill: #f7941e } 
		.s2 { fill: #fbb040 } 
		.s3 { fill: #e05b41 } 
		.s4 { fill: #f15a29 } 
		.s5 { opacity: .2;fill: #212a3c } 
		.s6 { opacity: .3;fill: url(#g1) } 
		.s7 { opacity: .3;fill: #ffffff } 
	</style>
	<g id="&lt;Group&gt;">
		<path id="&lt;Compound Path&gt;" fill-rule="evenodd" class="s0" d="m387.1 111.4c2.6 26.3-81.9 58.4-188.7 71.6-106.9 13.3-195.6 2.7-198.3-23.6-2.6-26.3 81.8-58.3 188.7-71.6 106.8-13.3 195.6-2.7 198.3 23.6zm-60.2 8c-2.3-22.6-73-26.1-138.5-18-65.4 8.2-133.7 28.9-131.5 51.5 2.3 22.5 73.1 26 138.5 17.9 65.5-8.1 133.8-28.9 131.5-51.4z"/>
		<g id="&lt;Group&gt;">
			<g id="&lt;Group&gt;">
				<path id="&lt;Path&gt;" class="s1" d="m309.9 118c0 64.9-52.7 117.5-117.6 117.5-64.9 0-117.5-52.6-117.5-117.5 0-64.9 52.6-117.5 117.5-117.5 64.9 0 117.6 52.6 117.6 117.5z"/>
				<g id="&lt;Group&gt;">
					<path id="&lt;Path&gt;" class="s2" d="m258.9 65c0.6 2.9-3.6 4.1-8.5 4.5-5.2 0.4-11.2 0-12.8 0-7.6 0-15.1 0.2-22.7 0.5-6.5 0.2-12.5 3.1-19 4-9.7 1.4-19.7-0.2-28.8-3.6-3.6-1.4-9.6-2.8-11.1-6.9-4.6-12.6 26-14.7 32.4-14.9 13.3-0.3 26.4 2.5 39.4 4.8 5.8 1 11.6 1.6 17.3 3.2 3.9 1.1 12.8 3.6 13.8 8.4z"/>
					<path id="&lt;Path&gt;" class="s3" d="m250.4 41c-15-5.6-29.9-12.9-46.3-13.4-7.1-0.2-14 1.9-20.9 3.5-25.3 5.9-51.3 6.1-77.2 7.1 21.5-23.2 52.2-37.7 86.3-37.7 39.3 0 74.1 19.2 95.4 48.9-12.5 1.1-27.2-4.5-37.3-8.4z"/>
					<path id="&lt;Path&gt;" class="s3" d="m308.1 138.2q-1.2 6.9-3.2 13.5-4-0.2-8-0.6c-9.5-1.2-19.4-2.7-28.9-4.5-1.4-0.3-4.7-0.4-5.9-1.3-4.4-3.3 1.4-6.8 4.4-7.5 4.4-0.9 9.2 0.3 13.6 0.8 9.3 1 18.7 0.6 28-0.4z"/>
					<path id="&lt;Path&gt;" class="s3" d="m298.8 167.7c-18.7 40.1-59.4 67.8-106.5 67.8-43.1 0-80.8-23.2-101.2-57.8q0.5-0.1 1.2-0.3c5-1.9 17.1-0.6 22.2-4.3 27.3-19.7 54.8 24.4 83.8 18.4 8.9-1.9 15.3-1.3 15.3-1.3 0 0 11.4-3.6 12.7-6.7 1.3-3.1 5.1-14.7 6.4-19.6 1.5-5.8 47.4 2.3 52.1 2.5 5.1 0.1 9.8 0.6 14 1.3z"/>
					<path id="&lt;Path&gt;" class="s2" d="m210.2 140.9c5.8-1.2 12.7-3.6 18.2-0.4-4 2.7-5.2 8.9-8 12.7-5 6.7-12 8.2-19.7 10.2-11.5 2.9-20.8-1.3-31-5.9-4.7-2.1-9.4-4.2-14.5-5.2-4-0.8-9.2 0.4-12.8-1.9-5.8-3.8 0.8-7.1 4.7-8.1 6.6-1.6 13.7 0.2 20.4 0.3 14.2 0.3 28.8 1.2 42.7-1.7z"/>
					<path id="&lt;Path&gt;" class="s4" d="m83.2 74.3q2.8-7 6.4-13.5c9.3-0.3 19-0.4 28.3-0.1 1.4 0.1 4.7-0.2 6 0.4 4.8 2.6-0.3 6.9-3.2 8.1-4.2 1.6-9.1 1.1-13.5 1.4-8.1 0.4-16.1 1.8-24 3.7z"/>
					<path id="&lt;Path&gt;" class="s4" d="m74.9 111.7q0.4-5.8 1.2-11.5c8.4 0 35.4 0 37.1 0 1.9 0 10.8 0 14.6-1.2 3.8-1.2 29.9 0 41.3 0 11.5 0 24.2 3.1 24.2 3.1 0 0 17.1 1.2 20.3 1.2 3.2 0 9.5 0.6 14-0.6 4.4-1.2 20.9-9.8 20.9-9.8l29.9-2.5 29.8 7.9c1 6.2 1.6 12.6 1.6 19.1-6.8-0.6-14.9-1.4-18.1-3.1-5.7-3-20.3-0.6-33.6 1.2-13.4 1.9-14.6 1.9-14.6 1.9 0 0-12.7 0.6-17.8 1.2-5.1 0.6-21.6 1.8-24.2 1.8-2.5 0-33.6 0-38.7 0-5.1 0-20.4 0-22.3 0-1.9 0-7 0-9.5-0.6-2.5-0.6-19.1-0.6-29.9-3.6-10.8-3.1-11.4-1.9-19.6-3.7-2.9-0.7-4.9-0.8-6.6-0.8z"/>
				</g>
				<path id="&lt;Path&gt;" class="s2" d="m156.2 83.2c0 2.9-6.6 5.3-14.8 5.3-8.1 0-14.7-2.4-14.7-5.3 0-2.9 6.6-5.3 14.7-5.3 8.2 0 14.8 2.4 14.8 5.3z"/>
				<path id="&lt;Path&gt;" class="s2" d="m281.3 125.6c0 1.9-4.2 3.4-9.4 3.4-5.2 0-9.4-1.5-9.4-3.4 0-1.8 4.2-3.3 9.4-3.3 5.2 0 9.4 1.5 9.4 3.3z"/>
				<path id="&lt;Path&gt;" class="s2" d="m113.3 133c0 1.8-4.2 3.4-9.4 3.4-5.2 0-9.5-1.6-9.5-3.4 0-1.9 4.3-3.4 9.5-3.4 5.2 0 9.4 1.5 9.4 3.4z"/>
				<path id="&lt;Path&gt;" class="s2" d="m291.6 76.8c0 1.6-3.6 2.9-8.1 2.9-4.5 0-8.2-1.3-8.2-2.9 0-1.6 3.7-2.9 8.2-2.9 4.5 0 8.1 1.3 8.1 2.9z"/>
				<path id="&lt;Path&gt;" class="s2" d="m219.7 176.6c0 1.6-3.7 2.9-8.2 2.9-4.4 0-8.1-1.3-8.1-2.9 0-1.6 3.7-2.9 8.1-2.9 4.5 0 8.2 1.3 8.2 2.9z"/>
				<path id="&lt;Path&gt;" class="s2" d="m125.1 47.1c0 1.6-3.7 2.9-8.1 2.9-4.5 0-8.2-1.3-8.2-2.9 0-1.6 3.7-2.9 8.2-2.9 4.4 0 8.1 1.3 8.1 2.9z"/>
			</g>
			<g id="&lt;Group&gt;">
				<path id="&lt;Path&gt;" class="s5" d="m286.1 47.1c14.9 19.7 23.8 44.3 23.8 70.9 0 64.9-52.7 117.5-117.6 117.5-36.7 0-69.4-16.8-91-43.1 76.3 3 151-94.4 184.8-145.3z"/>
				<path id="&lt;Path&gt;" class="s5" d="m309.3 106.7q0.5 5.6 0.6 11.3c0 64.9-52.7 117.5-117.6 117.5-31.2 0-59.6-12.2-80.7-32.1 92.1 21.7 162.1-48.9 197.7-96.7z"/>
			</g>
			<path id="&lt;Path&gt;" class="s6" d="m234.3 29.1c16.7 27.6-1.3 69.1-40.2 92.7-38.9 23.7-84 20.5-100.8-7.1-16.7-27.5 1.3-69 40.2-92.6 39-23.7 84.1-20.5 100.8 7z"/>
			<path id="&lt;Path&gt;" class="s7" d="m198.2 26.1c10 16.4-2.5 42.2-27.9 57.6-25.3 15.4-54 14.6-64-1.9-10-16.4 2.5-42.3 27.9-57.7 25.3-15.4 54-14.5 64 2z"/>
		</g>
		<path id="&lt;Path&gt;" class="s0" d="m198.4 183c-106.9 13.3-195.6 2.7-198.3-23.6-1.4-14.3 23.1-30.4 63.1-44.2-0.1 7.5 0.5 15.5 2.9 22.3-6.3 4.9-9.7 10.1-9.2 15.4 2.3 22.5 73.1 26 138.5 17.9 65.5-8.1 133.8-28.9 131.5-51.4-0.6-5.9-5.9-10.5-14.6-14 0.6-7.3 0.6-14.7 0.2-22 44.1 3.3 73.1 13.2 74.6 28 2.6 26.3-81.9 58.4-188.7 71.6z"/>
	</g>
</svg>