<svg version="1.2" xmlns="http://www.w3.org/2000/svg" viewBox="0 0 160 160" width="500" height="500">
	<title>&lt;Group&gt;</title>
	<style>
		.s0 { fill: #ff6633 } 
		.s1 { fill: #ffe62e } 
	</style>
	<g id="&lt;Group&gt;">
		<path id="&lt;Path&gt;" class="s0" d="m76.7 2.9c2.1 3.8 5.5 3.8 7.5 0 2.1-3.7 4.9-3.5 6.2 0.6 1.4 4 4.7 4.6 7.4 1.3 2.7-3.3 5.4-2.6 6.1 1.7 0.6 4.2 3.7 5.4 7 2.6 3.2-2.8 5.8-1.5 5.6 2.7-0.1 4.3 2.8 6 6.5 3.9 3.7-2.2 5.9-0.5 5 3.7-0.9 4.1 1.7 6.4 5.7 4.9 4-1.5 6 0.6 4.3 4.5-1.6 4 0.5 6.6 4.7 5.9 4.2-0.7 5.8 1.6 3.4 5.2-2.3 3.6-0.7 6.6 3.6 6.6 4.3 0.1 5.4 2.7 2.5 5.8-3 3.1-1.9 6.3 2.3 7.1 4.2 0.8 4.8 3.6 1.4 6.1-3.5 2.6-3 5.9 1 7.4 4 1.6 4.1 4.4 0.3 6.3-3.9 1.9-4 5.3-0.4 7.5 3.7 2.2 3.3 5-0.8 6.2-4.1 1.2-4.9 4.5-1.7 7.3 3.2 2.9 2.3 5.5-1.9 6-4.3 0.4-5.6 3.5-3 6.9 2.7 3.3 1.3 5.8-2.9 5.5-4.3-0.4-6.2 2.5-4.2 6.2 2 3.8 0.3 6-3.9 4.9-4.1-1.1-6.4 1.4-5.2 5.5 1.3 4-0.8 5.9-4.7 4.1-3.8-1.8-6.6 0.1-6.1 4.4 0.6 4.2-1.8 5.7-5.3 3.2-3.5-2.5-6.5-1-6.8 3.3-0.2 4.2-2.9 5.2-5.8 2.1-3-3-6.3-2.1-7.3 2-1 4.2-3.7 4.7-6.1 1.2-2.4-3.6-5.8-3.3-7.5 0.6-1.7 4-4.5 4-6.3 0-1.7-3.9-5-4.2-7.4-0.6-2.4 3.5-5.2 3-6.2-1.2-1-4.1-4.2-5-7.2-2-3 3.1-5.7 2.1-5.9-2.1-0.2-4.3-3.3-5.8-6.8-3.3-3.4 2.5-5.9 1-5.3-3.2 0.5-4.3-2.2-6.2-6.1-4.4-3.9 1.8-6-0.1-4.7-4.1 1.3-4.1-1.1-6.6-5.2-5.5-4.1 1.1-5.9-1.1-3.9-4.9 2-3.7 0.1-6.6-4.1-6.2-4.3 0.3-5.6-2.2-3-5.5 2.6-3.4 1.3-6.5-2.9-6.9-4.3-0.5-5.2-3.1-2-6 3.2-2.8 2.5-6.1-1.6-7.3-4.2-1.2-4.5-4-0.9-6.2 3.7-2.2 3.5-5.6-0.3-7.5-3.9-1.9-3.7-4.7 0.3-6.3 3.9-1.5 4.4-4.8 1-7.4-3.5-2.5-2.8-5.3 1.4-6.1 4.2-0.8 5.2-4 2.3-7.1-2.9-3.1-1.8-5.7 2.4-5.8 4.3 0 5.9-3 3.6-6.6-2.3-3.6-0.8-5.9 3.4-5.2 4.3 0.7 6.4-1.9 4.7-5.9-1.6-3.9 0.3-6 4.3-4.5 4.1 1.5 6.6-0.8 5.7-4.9-0.9-4.2 1.4-5.9 5.1-3.7 3.6 2.1 6.5 0.4 6.4-3.9-0.1-4.2 2.4-5.5 5.6-2.7 3.3 2.8 6.4 1.6 7.1-2.6 0.6-4.3 3.3-5 6-1.7 2.7 3.3 6 2.7 7.4-1.3 1.3-4.1 4.1-4.3 6.2-0.6z"/>
		<path id="&lt;Path&gt;" class="s1" d="m151.5 79.7c0 39.2-31.8 71-71 71-39.3 0-71.1-31.8-71.1-71 0-39.3 31.8-71.1 71.1-71.1 39.2 0 71 31.8 71 71.1z"/>
	</g>
</svg>