<svg version="1.2" xmlns="http://www.w3.org/2000/svg" viewBox="0 0 176 176" width="500" height="500">
	<title>&lt;Group&gt;</title>
	<defs>
		<linearGradient id="g1" x1="92.9" y1="-5.7" x2="128" y2="38" gradientUnits="userSpaceOnUse">
			<stop offset="0" stop-color="#ffffff"/>
			<stop offset="1" stop-color="#fefefe" stop-opacity="0"/>
		</linearGradient>
	</defs>
	<style>
		.s0 { fill: #e6e7e8 } 
		.s1 { fill: #d1d3d4 } 
		.s2 { fill: #a7a9ac } 
		.s3 { opacity: .1;fill: #212a3c } 
		.s4 { opacity: .5;fill: url(#g1) } 
		.s5 { opacity: .3;fill: #ffffff } 
	</style>
	<g id="&lt;Group&gt;">
		<g id="&lt;Group&gt;">
			<path id="&lt;Path&gt;" class="s0" d="m88.3 0.2c48.3 0 87.5 39.2 87.5 87.6 0 48.3-39.2 87.5-87.5 87.5-48.3 0-87.5-39.2-87.5-87.5 0-48.4 39.2-87.6 87.5-87.6z"/>
			<g id="&lt;Group&gt;">
				<path id="&lt;Path&gt;" class="s1" d="m120.3 91.5c11.9 0 21.5 9.7 21.5 21.6 0 11.9-9.6 21.5-21.5 21.5-11.9 0-21.6-9.6-21.6-21.5 0-11.9 9.7-21.6 21.6-21.6z"/>
				<path id="&lt;Path&gt;" class="s2" d="m127.5 59.7c-6.7 0-12.1-5.5-12.1-12.2 0-6.7 5.4-12.1 12.1-12.1 6.7 0 12.1 5.4 12.1 12.1 0 6.7-5.4 12.2-12.1 12.2z"/>
				<path id="&lt;Path&gt;" class="s1" d="m172.7 64.6c2 7.4 3.1 15.1 3.1 23.2 0 12.8-2.8 25.1-7.8 36.1-11.8-4.4-20.2-15.7-20.2-29 0-15 10.7-27.5 24.9-30.3z"/>
				<path id="&lt;Path&gt;" class="s1" d="m24.8 114.9c-2.7 0-4.9-2.2-4.9-4.9 0-2.7 2.2-4.9 4.9-4.9 2.7 0 4.8 2.2 4.8 4.9 0 2.7-2.1 4.9-4.8 4.9z"/>
				<path id="&lt;Path&gt;" class="s1" d="m139.6 78.3c-2.7 0-4.8-2.2-4.8-4.9 0-2.7 2.1-4.9 4.8-4.9 2.7 0 4.9 2.2 4.9 4.9 0 2.7-2.2 4.9-4.9 4.9z"/>
				<path id="&lt;Path&gt;" class="s1" d="m46.8 119.8c6.7 0 12.1 5.4 12.1 12.1 0 6.7-5.4 12.2-12.1 12.2-6.7 0-12.1-5.5-12.1-12.2 0-6.7 5.4-12.1 12.1-12.1z"/>
				<path id="&lt;Path&gt;" class="s1" d="m89.1 21.5c4.2 0 7.7 3.4 7.7 7.7 0 4.3-3.5 7.7-7.7 7.7-4.3 0-7.8-3.4-7.8-7.7 0-4.3 3.5-7.7 7.8-7.7z"/>
				<path id="&lt;Path&gt;" class="s2" d="m88.3 175.3c-11.3 0-22.1-2.2-32-6.1 3-13.9 15.4-24.4 30.2-24.4 15.3 0 28 11.1 30.4 25.7-8.9 3.1-18.6 4.8-28.6 4.8z"/>
				<path id="&lt;Path&gt;" class="s2" d="m22.3 69.2c0-9.1 7.4-16.4 16.5-16.4 9.1 0 16.5 7.3 16.5 16.4 0 9.2-7.4 16.5-16.5 16.5-9.1 0-16.5-7.3-16.5-16.5z"/>
				<path id="&lt;Path&gt;" class="s1" d="m85 76c-2.7 0-4.9-2.2-4.9-4.9 0-2.7 2.2-4.9 4.9-4.9 2.7 0 4.9 2.2 4.9 4.9 0 2.7-2.2 4.9-4.9 4.9z"/>
				<path id="&lt;Path&gt;" class="s1" d="m82.2 113.5c0 4.3-3.5 7.7-7.8 7.7-4.3 0-7.7-3.4-7.7-7.7 0-4.3 3.4-7.7 7.7-7.7 4.3 0 7.8 3.4 7.8 7.7z"/>
			</g>
		</g>
		<g id="&lt;Group&gt;">
			<path id="&lt;Path&gt;" class="s3" d="m175.8 87.8c0 48.3-39.2 87.5-87.5 87.5-25.4 0-48.3-10.9-64.3-28.2 56.4-1.8 111-74.1 135.1-110.8 10.5 14.4 16.7 32.2 16.7 51.5z"/>
			<path id="&lt;Path&gt;" class="s3" d="m175.8 87.8c0 48.3-39.2 87.5-87.5 87.5-20.2 0-38.8-6.9-53.6-18.4 65.5 10.8 115.3-39.9 140.9-74.4q0.2 2.6 0.2 5.3z"/>
		</g>
		<path id="&lt;Path&gt;" class="s4" d="m115.8 21.3c11.6 19-0.9 47.7-27.8 64.1-26.9 16.3-58.1 14.1-69.7-4.9-11.6-19.1 0.9-47.8 27.8-64.1 26.9-16.4 58.1-14.2 69.7 4.9z"/>
		<path id="&lt;Path&gt;" class="s5" d="m90.8 19.1c6.9 11.4-1.7 29.3-19.2 39.9-17.6 10.7-37.4 10.1-44.3-1.3-6.9-11.4 1.7-29.2 19.3-39.9 17.5-10.6 37.3-10 44.2 1.3z"/>
	</g>
</svg>