<svg version="1.2" xmlns="http://www.w3.org/2000/svg" viewBox="0 0 154 154" width="500" height="500">
	<title>&lt;Group&gt;</title>
	<defs>
		<linearGradient id="g1" x1="81.7" y1="-5.1" x2="112.6" y2="34.5" gradientUnits="userSpaceOnUse">
			<stop offset="0" stop-color="#ffffff"/>
			<stop offset="1" stop-color="#fefefe" stop-opacity="0"/>
		</linearGradient>
	</defs>
	<style>
		.s0 { fill: #ea3232 } 
		.s1 { fill: #f15a29 } 
		.s2 { opacity: .2;fill: #212a3c } 
		.s3 { opacity: .3;fill: url(#g1) } 
		.s4 { opacity: .3;fill: #ffffff } 
	</style>
	<g id="&lt;Group&gt;">
		<g id="&lt;Group&gt;">
			<path id="&lt;Path&gt;" class="s0" d="m153.7 77.4c0 42.2-34.3 76.5-76.5 76.5-42.3 0-76.5-34.3-76.5-76.5 0-42.3 34.2-76.5 76.5-76.5 42.2 0 76.5 34.2 76.5 76.5z"/>
			<path id="&lt;Path&gt;" class="s1" d="m142.7 37.9c-0.2-0.4-2.7-0.6-3.1-0.7q-1.9-0.4-3.7-0.8c-5-1.3-10.2-2.8-14.9-5.1-4.2-2.1-7.7-5.4-11.2-8.4-2.9-2.6-6.5-6.5-10.8-5.7-3.9 0.7-2.2 8.1-1.7 10.5 4 16.8-1.1 35.3-11.1 23.7-10-11.7-16.9-30.9-25.5-14.5-8.7 16.3-20.7 23.1-29.7 17.6-7.8-4.7-16-6.1-25.7-3.4 10.7-29.3 38.8-50.2 71.9-50.2 27.8 0 52.1 14.8 65.5 37z"/>
			<path id="&lt;Path&gt;" class="s2" d="m89.9 152.6c-4.2 0.6-8.5 1.3-12.7 1.3q-1.9 0-3.7-0.1-0.5-0.1-1.1-0.1-1.2-0.1-2.5-0.2-0.6-0.1-1.2-0.1-1.2-0.2-2.4-0.3-0.6-0.1-1.2-0.2-1.4-0.2-2.8-0.5-0.3-0.1-0.7-0.1-1.7-0.4-3.3-0.8-0.5-0.1-1-0.3-1.2-0.3-2.4-0.6-0.6-0.2-1.2-0.4-1.1-0.4-2.1-0.8-0.6-0.2-1.2-0.4-1.2-0.4-2.3-0.9-0.5-0.2-0.9-0.3-1.6-0.7-3.1-1.4-0.3-0.2-0.7-0.4-1.2-0.6-2.3-1.2-0.6-0.3-1.1-0.6-1-0.5-1.9-1.1-0.6-0.3-1.1-0.6-1-0.6-1.9-1.3-0.5-0.3-1-0.6-1.3-0.9-2.7-1.9-0.2-0.2-0.3-0.3-1.2-0.9-2.3-1.8-0.5-0.4-0.9-0.8-0.9-0.7-1.7-1.4-0.5-0.4-1-0.9-0.7-0.7-1.5-1.4-0.5-0.5-0.9-1-0.9-0.8-1.7-1.8-0.3-0.3-0.6-0.6-1.1-1.2-2.2-2.5-0.4-0.4-0.8-0.9-0.6-0.9-1.3-1.7-0.4-0.6-0.8-1.1-0.6-0.8-1.2-1.7-0.4-0.5-0.8-1.1-0.6-0.9-1.1-1.8-0.4-0.6-0.7-1.1-0.8-1.4-1.6-2.8-0.3-0.5-0.6-1.1-0.5-0.9-0.9-1.9-0.4-0.7-0.7-1.3-0.4-0.9-0.8-1.8-0.3-0.7-0.6-1.4-0.3-0.9-0.7-1.8-0.3-0.7-0.5-1.4-0.5-1.4-1-2.8 0-0.1-0.1-0.3c0.8 2.6 6.3 5.6 8.6 6.5 5.6 2.1 14.5 0.6 19.9-1.4 18.7-6.9 38.5-23.6 37.8-45.2 0.2 6.4 1.9 13.7 4.1 19.7 5.2 14.5 27.5 35.1 42.4 19.6 7.1-7.5 3.6-24 1.8-32.8q0 0.1 0 0.2c0.4 1.5 1 2.9 1.5 4.3q1.5 4.5 3.5 8.8c2.4 5.2 4.8 11.3 9.7 14.7 1.8 1.2 5 1.5 6.8 0.3 6.1-4 7-12.1 9.5-18.3 0.5-1.3 2.2-5.4 3.4-8.4q0.5 4.5 0.6 9.2c0 16.7-5.4 32.2-14.6 44.8-4.7 5.9-10.1 11.4-15.9 16q-2.5 2-5.2 3.8c-6.6 4.2-13.9 7.4-21.6 9.4q-3.2 0.7-6.5 1.2z"/>
		</g>
		<path id="&lt;Path&gt;" class="s3" d="m101.7 19.4c10.1 17.3-1.5 42.9-25.9 57.3-24.4 14.3-52.4 11.9-62.5-5.3-10.2-17.3 1.4-42.9 25.8-57.3 24.4-14.3 52.4-11.9 62.6 5.3z"/>
		<path id="&lt;Path&gt;" class="s4" d="m79.2 17.2c6.1 10.3-1.9 26.2-17.8 35.6-15.9 9.3-33.7 8.5-39.7-1.8-6.1-10.3 1.9-26.2 17.8-35.6 15.9-9.3 33.7-8.5 39.7 1.8z"/>
	</g>
</svg>